<svg width="110" height="75" viewBox="0 0 110 75" fill="none" xmlns="http://www.w3.org/2000/svg">
<path fill-rule="evenodd" clip-rule="evenodd" d="M54.9996 58.0504L21.1865 16.788L34.9436 0H75.0552L88.8126 16.788L54.9996 58.0504ZM54.9996 54.5245L24.0759 16.788L36.0014 2.23495H73.9974L85.9229 16.788L54.9996 54.5245Z" fill="#2B2B2A"/>
<path fill-rule="evenodd" clip-rule="evenodd" d="M55.0002 52.027L26.123 16.7881L36.7513 3.8183H73.2488L83.877 16.7881L55.0002 52.027Z" fill="#E31F25"/>
<path fill-rule="evenodd" clip-rule="evenodd" d="M60.6188 16.6474V23.5242V35.3263L75.8102 16.7881L70.2954 10.0582H60.6188V16.6474ZM53.5708 9.80988V5.86719H37.7203L34.4896 9.80988L28.7715 16.7881L53.5708 47.051V23.5242V19.3333H49.3807H46.3226L43.0449 23.5242H49.3807V35.3263L34.1892 16.7881L39.704 10.0582H49.3807V13.9618H53.5708V9.80988ZM56.4286 16.6474V9.80988V5.86719H72.2788L75.5095 9.80988L81.2279 16.7881L56.4286 47.051V23.5242V16.6474Z" fill="white"/>
<path d="M33.8682 72.921C34.0435 72.9595 34.2106 72.9839 34.3696 73.0005C34.5286 73.0172 34.6846 73.025 34.8381 73.025C36.134 73.025 37.1091 72.6389 37.7669 71.866C38.4217 71.0934 38.7504 69.9451 38.7504 68.4218C38.7504 66.8649 38.4516 65.747 37.8545 65.0676C37.2573 64.3879 36.2575 64.048 34.8547 64.048C34.6136 64.048 34.4247 64.048 34.2901 64.0506C34.1533 64.0536 34.0165 64.0617 33.8819 64.0728C33.879 64.3553 33.8712 64.7688 33.8601 65.3087C33.8327 66.9773 33.819 68.1064 33.819 68.7011C33.819 69.1341 33.8217 69.704 33.8301 70.4111C33.8379 71.1152 33.852 71.9539 33.8682 72.921ZM30.9092 74.1596C30.9695 73.6555 31.0164 73.113 31.0463 72.5294C31.0766 71.9455 31.0903 71.1973 31.0903 70.282V68.2928V67.1201C31.0903 66.1745 31.0766 65.3853 31.0463 64.7525C31.0164 64.122 30.9668 63.5221 30.9014 62.9548C31.1203 62.9656 31.3448 62.9741 31.5751 62.9822C31.8051 62.9907 32.0409 62.9959 32.282 62.9959C32.7176 62.9959 33.2519 62.9848 33.8875 62.963C34.5257 62.9411 34.9505 62.9301 35.1642 62.9301C36.5312 62.9301 37.501 62.9822 38.0789 63.0865C38.6572 63.1904 39.1531 63.3628 39.5668 63.6042C40.2874 64.0207 40.8298 64.6209 41.1888 65.3993C41.5475 66.1771 41.7257 67.1419 41.7257 68.2928C41.7257 70.2439 41.1615 71.7125 40.0326 72.6907C38.9009 73.6692 37.2134 74.1596 34.9642 74.1596C34.6218 74.1596 34.1533 74.1544 33.5587 74.1433C32.9642 74.1325 32.5397 74.1267 32.282 74.1267C32.1064 74.1267 31.9204 74.1293 31.7233 74.1351C31.5285 74.1403 31.2574 74.1485 30.9092 74.1596ZM43.4162 74.1596C43.4846 73.3349 43.5341 72.5072 43.567 71.677C43.597 70.8464 43.6133 69.8053 43.6133 68.5531C43.6133 67.4788 43.597 66.4896 43.567 65.5857C43.5341 64.6811 43.4846 63.7962 43.4162 62.9301C43.8544 62.9767 44.189 63.0066 44.419 63.0233C44.6493 63.0369 44.8519 63.0451 45.0298 63.0451C45.1477 63.0451 45.3067 63.0369 45.5067 63.0233C45.7064 63.0066 46.0407 62.9767 46.5066 62.9301C46.4463 63.7385 46.4026 64.5713 46.3723 65.4319C46.342 66.2954 46.3261 67.3335 46.3261 68.5531V69.1944C46.3261 70.2081 46.342 71.1015 46.3723 71.8744C46.4026 72.647 46.4463 73.4088 46.5066 74.1596C46.1094 74.1325 45.7833 74.11 45.5233 74.0967C45.2631 74.083 45.0409 74.0775 44.8519 74.0775C44.7558 74.0775 44.6216 74.0804 44.4437 74.0882C44.2681 74.0967 43.9257 74.1214 43.4162 74.1596ZM50.6244 69.6711C50.6629 69.6711 50.7228 69.674 50.8082 69.6792C51.334 69.6959 51.7093 69.704 51.9341 69.704C52.1914 69.704 52.6052 69.6932 53.1779 69.6711H53.2655C53.0955 69.1149 52.901 68.5476 52.6846 67.9692C52.4683 67.3912 52.2217 66.7965 51.9503 66.1856C51.6874 66.8128 51.4438 67.4185 51.2216 68.0021C50.9997 68.586 50.7997 69.1423 50.6244 69.6711ZM47.3148 74.1596C48.1778 72.2332 48.9887 70.3179 49.753 68.4133C50.5146 66.5114 51.2326 64.6124 51.9011 62.7163H51.9503C52.3149 62.7603 52.5778 62.7821 52.7449 62.7821C52.8791 62.7821 53.0984 62.7655 53.4027 62.7329C53.4844 62.7218 53.5421 62.7163 53.5805 62.7163C54.2653 64.7196 54.9671 66.6678 55.6848 68.5613C56.4025 70.4577 57.1394 72.3238 57.901 74.1596C57.5531 74.1433 57.2462 74.1325 56.9807 74.124C56.7178 74.1159 56.493 74.11 56.3122 74.11C56.0711 74.11 55.8134 74.1159 55.545 74.124C55.2736 74.1325 54.9834 74.1433 54.6709 74.1596C54.5751 73.8637 54.4188 73.3648 54.1999 72.6581C53.978 71.951 53.8079 71.4029 53.6848 71.0194C53.5835 71.0136 53.3232 71.0028 52.9091 70.9891C52.4928 70.9754 52.1585 70.9699 51.9011 70.9699C51.8217 70.9699 51.5832 70.9754 51.1913 70.9891C50.7971 71.0028 50.4436 71.0136 50.1256 71.0194C49.9123 71.677 49.5669 72.6936 49.0903 74.0719L49.0574 74.1596C48.86 74.1433 48.6958 74.1325 48.5642 74.124C48.4329 74.1159 48.3286 74.11 48.2547 74.11C48.1205 74.11 47.9752 74.1159 47.8162 74.124C47.6601 74.1325 47.493 74.1433 47.3148 74.1596ZM58.063 74.1596C58.2767 72.9129 58.4519 71.8552 58.5888 70.9891C58.7259 70.1234 58.8438 69.312 58.9448 68.5561L59.6847 62.9301C59.9919 62.963 60.2245 62.9848 60.389 62.9959C60.5503 63.0066 60.693 63.0125 60.8164 63.0125C60.9507 63.0125 61.1093 63.0066 61.2901 62.9933C61.4739 62.9822 61.7013 62.9604 61.9726 62.9301C62.5258 64.3823 63.0464 65.7115 63.5396 66.9145C64.0325 68.1201 64.5176 69.2599 64.9946 70.3316L67.0656 65.846C67.3288 65.2677 67.5477 64.747 67.723 64.2839C67.9012 63.8206 68.0491 63.3686 68.1726 62.9301C68.4628 62.963 68.6931 62.9848 68.8629 62.9959C69.0352 63.0066 69.1835 63.0125 69.3066 63.0125C69.4438 63.0125 69.6027 63.0066 69.7751 62.9959C69.9503 62.9848 70.1751 62.963 70.4547 62.9301L70.9834 68.4599C70.9941 68.5886 71.0134 68.7861 71.0411 69.0543C71.2655 71.3811 71.4877 73.0827 71.7066 74.1596C71.3206 74.1267 71.016 74.1048 70.7915 74.0937C70.5667 74.083 70.3726 74.0775 70.2132 74.0775C70.0302 74.0775 69.8272 74.083 69.5998 74.0937C69.3724 74.1048 69.0737 74.1267 68.7039 74.1596C68.6876 73.2827 68.6218 72.1811 68.5039 70.8604C68.4928 70.7591 68.4876 70.6851 68.4876 70.6441L68.0846 66.7281C67.5067 67.9751 66.9502 69.2162 66.4137 70.4521C65.8794 71.688 65.3614 72.924 64.8656 74.1596C64.7698 74.1485 64.6766 74.1403 64.5916 74.1351C64.5066 74.1293 64.4052 74.1267 64.2876 74.1267C64.2218 74.1267 64.0987 74.1325 63.9175 74.1433C63.8218 74.1485 63.7423 74.1544 63.6846 74.1596C63.1969 72.9074 62.6874 71.677 62.159 70.4684C61.6273 69.2573 61.0709 68.0624 60.4874 66.879L60.0137 71.373C59.9886 71.7535 59.959 72.1811 59.9313 72.6552C59.9013 73.1267 59.871 73.6307 59.8466 74.1596C59.5723 74.1267 59.3671 74.1048 59.2302 74.0937C59.096 74.083 58.9833 74.0775 58.8986 74.0775C58.8135 74.0775 58.7067 74.083 58.5806 74.0937C58.4545 74.1048 58.2822 74.1267 58.063 74.1596ZM75.786 68.5561C75.786 70.0409 76.0818 71.1999 76.6735 72.0357C77.2628 72.8718 78.0792 73.2883 79.123 73.2883C80.145 73.2883 80.9532 72.8663 81.5504 72.022C82.1449 71.1781 82.4437 70.0246 82.4437 68.5561C82.4437 67.0624 82.1475 65.8949 81.5559 65.051C80.9669 64.207 80.1557 63.7851 79.123 63.7851C78.0847 63.7851 77.2709 64.207 76.6764 65.0539C76.0819 65.9004 75.786 67.0679 75.786 68.5561ZM72.8107 68.6981C72.8107 66.8128 73.3805 65.3442 74.5204 64.2947C75.66 63.2425 77.2436 62.7163 79.2709 62.7163C81.2298 62.7163 82.745 63.2015 83.8133 64.1741C84.8847 65.1442 85.4187 66.5169 85.4187 68.2872C85.4187 70.2081 84.8571 71.7014 83.7341 72.762C82.6108 73.8253 81.0246 74.357 78.9751 74.357C76.9943 74.357 75.4736 73.8689 74.408 72.8963C73.3424 71.9207 72.8107 70.5232 72.8107 68.6981ZM86.9831 74.1596C87.0463 73.3404 87.0929 72.4991 87.1202 71.6385C87.1502 70.7757 87.1642 69.748 87.1642 68.5531C87.1642 67.8079 87.1502 66.9637 87.1258 66.0184C87.0984 65.0728 87.0629 64.0428 87.0134 62.9301C87.2985 62.9548 87.5203 62.9711 87.6848 62.9822C87.8464 62.9907 87.9862 62.9959 88.0982 62.9959C88.2217 62.9959 88.3615 62.9907 88.5179 62.9822C88.6765 62.9741 88.8931 62.9574 89.1642 62.9301C90.1588 64.2126 91.1831 65.4622 92.2301 66.6759C93.2791 67.89 94.3588 69.0735 95.4654 70.2273V67.1338C95.4654 66.254 95.4573 65.4951 95.4381 64.8594C95.4189 64.2237 95.3915 63.5821 95.353 62.9301C95.5475 62.9519 95.712 62.9685 95.8518 62.9796C95.9916 62.9907 96.1092 62.9959 96.2079 62.9959C96.2985 62.9959 96.4493 62.9874 96.6571 62.9685C96.8682 62.9519 97.0246 62.9385 97.1256 62.9301C97.0438 63.5332 96.9858 64.3468 96.9507 65.369C96.9148 66.3886 96.8956 67.8982 96.8956 69.8985V70.6851C96.8956 71.5017 96.9064 72.1732 96.9285 72.6991C96.9507 73.228 96.9832 73.7158 97.0272 74.1596C96.7643 74.1267 96.5614 74.1048 96.419 74.0937C96.2763 74.083 96.1532 74.0775 96.0463 74.0775C95.9339 74.0775 95.8023 74.083 95.6544 74.0937C95.5065 74.1048 95.3094 74.1267 95.0572 74.1596C94.0489 72.8855 93.0136 71.6274 91.9447 70.3945C90.8791 69.1585 89.7669 67.9282 88.6107 66.7007V71.2495C88.6107 71.5701 88.6162 71.9836 88.627 72.488C88.6381 72.9921 88.6547 73.5486 88.6739 74.1596C88.4765 74.1325 88.3094 74.11 88.1696 74.0967C88.0298 74.083 87.9093 74.0775 87.8024 74.0775C87.7311 74.0775 87.6379 74.083 87.5203 74.0937C87.4027 74.1048 87.2245 74.1267 86.9831 74.1596ZM102.142 72.921C102.318 72.9595 102.485 72.9839 102.644 73.0005C102.802 73.0172 102.958 73.025 103.112 73.025C104.408 73.025 105.383 72.6389 106.041 71.866C106.696 71.0934 107.024 69.9451 107.024 68.4218C107.024 66.8649 106.726 65.747 106.128 65.0676C105.531 64.3879 104.531 64.048 103.128 64.048C102.887 64.048 102.698 64.048 102.564 64.0506C102.427 64.0536 102.29 64.0617 102.156 64.0728C102.153 64.3553 102.145 64.7688 102.134 65.3087C102.106 66.9773 102.093 68.1064 102.093 68.7011C102.093 69.1341 102.095 69.704 102.104 70.4111C102.112 71.1152 102.126 71.9539 102.142 72.921ZM99.1832 74.1596C99.2435 73.6555 99.2901 73.113 99.3201 72.5294C99.3504 71.9455 99.364 71.1973 99.364 70.282V68.2928V67.1201C99.364 66.1745 99.3504 65.3853 99.3201 64.7525C99.2901 64.122 99.2406 63.5221 99.1751 62.9548C99.394 62.9656 99.6188 62.9741 99.8491 62.9822C100.079 62.9907 100.315 62.9959 100.556 62.9959C100.991 62.9959 101.526 62.9848 102.162 62.963C102.8 62.9411 103.225 62.9301 103.438 62.9301C104.805 62.9301 105.775 62.9822 106.353 63.0865C106.931 63.1904 107.427 63.3628 107.841 63.6042C108.561 64.0207 109.104 64.6209 109.463 65.3993C109.822 66.1771 110 67.1419 110 68.2928C110 70.2439 109.435 71.7125 108.306 72.6907C107.175 73.6692 105.487 74.1596 103.238 74.1596C102.896 74.1596 102.427 74.1544 101.832 74.1433C101.238 74.1325 100.813 74.1267 100.556 74.1267C100.38 74.1267 100.194 74.1293 99.997 74.1351C99.8022 74.1403 99.5312 74.1485 99.1832 74.1596Z" fill="#2B2B2A"/>
<path d="M10.8495 73.5815C9.94509 73.8419 9.08763 74.0361 8.27416 74.1651C7.46036 74.2938 6.67686 74.357 5.92333 74.357C4.08756 74.357 2.64109 73.8363 1.58361 72.7979C0.529062 71.7565 0 70.3423 0 68.5561C0 66.7639 0.589005 65.3387 1.76996 64.2755C2.94798 63.2152 4.53974 62.6834 6.54524 62.6834C7.34243 62.6834 8.07935 62.7685 8.75632 62.9385C9.43296 63.1083 10.0767 63.3713 10.6849 63.7222C10.5452 64.0373 10.4272 64.3661 10.3289 64.703C10.2301 65.0399 10.1507 65.3882 10.0904 65.7418H9.89035C9.52352 65.092 9.07102 64.6072 8.53446 64.284C7.99985 63.9633 7.38087 63.8014 6.67393 63.8014C5.56171 63.8014 4.66582 64.2344 3.98918 65.0976C3.31253 65.9637 2.97534 67.1142 2.97534 68.5561C2.97534 69.9999 3.29331 71.1289 3.93151 71.9399C4.56711 72.7513 5.44932 73.1566 6.57815 73.1566C6.87396 73.1566 7.1424 73.14 7.38641 73.1074C7.63009 73.0771 7.86303 73.025 8.08782 72.9569V72.4991C8.08782 71.9155 8.07413 71.329 8.04677 70.7399C8.02201 70.1507 7.98096 69.5587 7.9259 68.9644C8.20542 68.9862 8.47387 69.0025 8.73156 69.0135C8.98632 69.0246 9.22218 69.0298 9.43817 69.0298C9.65221 69.0298 9.88482 69.0246 10.137 69.0135C10.3891 69.0025 10.652 68.9862 10.9316 68.9644C10.8713 69.5916 10.8302 70.1015 10.8055 70.4987C10.7807 70.8933 10.767 71.2302 10.767 71.5098C10.767 71.7125 10.7726 71.9676 10.7836 72.2772C10.7947 72.5841 10.8166 73.0198 10.8495 73.5815ZM15.1755 68.5561C15.1755 70.0409 15.4713 71.1999 16.0629 72.0357C16.6522 72.8718 17.4687 73.2883 18.5125 73.2883C19.5344 73.2883 20.3427 72.8663 20.9398 72.0221C21.5344 71.1781 21.8331 70.0246 21.8331 68.5561C21.8331 67.0624 21.537 65.8949 20.945 65.051C20.3564 64.2071 19.5452 63.7851 18.5125 63.7851C17.4739 63.7851 16.6601 64.207 16.0658 65.0539C15.4713 65.9005 15.1755 67.0679 15.1755 68.5561ZM12.1998 68.6981C12.1998 66.8128 12.7699 65.3442 13.9095 64.2947C15.0494 63.2426 16.633 62.7163 18.6604 62.7163C20.6193 62.7163 22.1345 63.2015 23.2027 64.1741C24.2742 65.1442 24.8082 66.5169 24.8082 68.2872C24.8082 70.2081 24.2465 71.7014 23.1232 72.762C22.0003 73.8253 20.4137 74.357 18.3645 74.357C16.3838 74.357 14.8631 73.8689 13.7974 72.8963C12.7315 71.9207 12.1998 70.5232 12.1998 68.6981Z" fill="#E31F25"/>
</svg>
