<svg width="25" height="21" viewBox="0 0 25 21" fill="none" xmlns="http://www.w3.org/2000/svg">
<path d="M12.6062 3.76302L12.2511 3.40477C11.1841 2.32836 9.34252 0.875 7.24989 0.875C5.37612 0.875 3.81781 1.50279 2.73102 2.54832C1.64563 3.59248 1 5.08218 1 6.86786C1 8.82246 1.79518 10.4467 3.02435 11.9237C4.26317 13.4124 5.91426 14.719 7.5906 16.0429L7.5908 16.0431L7.63307 16.0765C9.18606 17.3042 10.8352 18.608 12.1088 20.0613M12.6062 3.76302L11.7333 20.3915M12.6062 3.76302L12.9613 3.40477C14.0279 2.32875 15.874 0.875 17.968 0.875C19.8412 0.875 21.3992 1.50277 22.4859 2.5483C23.5712 3.59247 24.2168 5.08217 24.2168 6.86786C24.2168 8.82293 23.4211 10.4474 22.1916 11.9245C20.9523 13.4131 19.301 14.7195 17.6251 16.0429L17.6237 16.044C16.057 17.2807 14.3914 18.5955 13.1047 20.0614M12.6062 3.76302L13.4802 20.3915M12.1088 20.0613C12.109 20.0615 12.1092 20.0617 12.1094 20.062L11.7333 20.3915M12.1088 20.0613C12.1087 20.0612 12.1086 20.0611 12.1085 20.061L11.7333 20.3915M12.1088 20.0613C12.2223 20.19 12.3928 20.2681 12.5754 20.2681H12.6392C12.822 20.2681 12.9916 20.1897 13.1047 20.0614M11.7333 20.3915C11.9435 20.6302 12.2518 20.7681 12.5754 20.7681H12.6392C12.964 20.7681 13.2711 20.6291 13.4802 20.3915M13.1047 20.0614C13.1046 20.0615 13.1045 20.0616 13.1044 20.0616L13.4802 20.3915M13.1047 20.0614C13.1047 20.0613 13.1048 20.0612 13.1049 20.0611L13.4802 20.3915M12.6062 3.05278L12.4481 2.8961C12.5027 2.94926 12.5554 3.00156 12.6062 3.05278ZM12.6062 3.05278L12.7627 2.89765C12.7087 2.95028 12.6565 3.00206 12.6062 3.05278Z" stroke="black"/>
</svg>
