<svg width="375" height="630" viewBox="0 0 375 630" fill="none" xmlns="http://www.w3.org/2000/svg">
<path opacity="0.2" fill-rule="evenodd" clip-rule="evenodd" d="M-15.2822 557.568C-15.4585 557.877 -17.4676 562.587 -19.747 568.034C-23.3605 576.67 -23.8707 578.002 -23.7311 578.434C-23.596 578.854 -19.3687 581.919 3.5128 598.186C23.5599 612.439 30.7187 617.447 31.0659 617.46C31.3675 617.471 31.6702 617.378 31.913 617.199C32.1925 616.993 35.2924 608.825 43.8437 585.762C53.6042 559.438 55.374 554.526 55.2497 554.103C55.1215 553.667 53.9503 552.853 46.1036 547.748C41.1541 544.527 36.8431 541.765 36.5235 541.609L35.9425 541.325L-14.9616 557.007L-15.2822 557.568ZM7.93652 552.939C7.99131 553.117 -0.293049 568.646 -0.469287 568.696C-0.588476 568.73 -10.8857 559.419 -11.3193 558.886C-11.3693 558.824 -7.065 557.435 -1.75436 555.799C3.55627 554.163 7.9171 552.876 7.93652 552.939ZM33.9888 544.928C33.931 545.607 30.6583 559.104 30.5419 559.142C30.3683 559.201 14.7803 551.027 14.7255 550.849C14.7059 550.786 19.0349 549.395 24.3454 547.759C29.656 546.123 33.9956 544.849 33.9888 544.928ZM19.5763 556.591C23.985 558.912 27.6082 560.863 27.6279 560.927C27.6475 560.991 22.1094 562.754 15.3208 564.845C8.5323 566.937 2.96219 568.596 2.94277 568.533C2.90413 568.408 11.3581 552.433 11.4835 552.394C11.526 552.381 15.1677 554.27 19.5763 556.591ZM-8.21707 565.477C-5.37001 568.087 -2.99976 570.273 -2.94988 570.334C-2.89985 570.396 -6.68912 571.626 -11.3704 573.068C-16.0517 574.51 -19.8765 575.625 -19.8699 575.546C-19.8392 575.171 -13.7123 560.83 -13.5635 560.784C-13.47 560.755 -11.0641 562.867 -8.21707 565.477ZM43.7119 549.479C47.3582 551.842 50.3824 553.826 50.4324 553.888C50.4826 553.95 46.6934 555.181 42.0121 556.623C37.3308 558.065 33.5061 559.18 33.5128 559.101C33.5749 558.363 36.7837 545.273 36.9122 545.234C37.0057 545.205 40.0656 547.115 43.7119 549.479ZM12.2775 591.318C19.3417 601.519 25.0995 609.907 25.0725 609.957C25.0456 610.008 24.9911 610.028 24.9515 610.002C24.1191 609.448 -19.12 578.62 -19.1355 578.57C-19.1479 578.53 -14.9749 577.208 -9.8622 575.634L-0.566447 572.77L12.2775 591.318ZM30.1309 563.691C30.2147 564.544 29.7659 611.394 29.6738 611.422C29.5797 611.451 2.38259 572.266 2.31729 572.007C2.30101 571.943 8.54418 569.963 16.1913 567.607L30.0948 563.324L30.1309 563.691ZM51.5268 556.801C51.5424 556.851 33.1466 606.666 32.7704 607.593C32.7525 607.637 32.6962 607.651 32.6454 607.624C32.5947 607.598 32.6342 597.424 32.7332 585.016L32.9133 562.456L42.2089 559.592C47.3214 558.017 51.5145 556.761 51.5268 556.801Z" fill="#EC565A"/>
<path opacity="0.2" fill-rule="evenodd" clip-rule="evenodd" d="M339.774 305.263C339.754 305.517 339.882 309.192 340.06 313.429C340.341 320.146 340.415 321.168 340.638 321.407C340.854 321.638 344.537 322.343 364.374 325.95C381.754 329.111 387.936 330.186 388.165 330.089C388.365 330.004 388.533 329.851 388.637 329.661C388.756 329.441 388.283 323.185 386.816 305.581C385.143 285.488 384.797 281.754 384.587 281.517C384.371 281.272 383.361 281.1 376.702 280.171C372.502 279.585 368.857 279.102 368.602 279.098L368.137 279.09L339.812 304.8L339.774 305.263ZM353.463 295.177C353.553 295.276 352.898 307.899 352.798 307.985C352.731 308.044 343.197 305.126 342.753 304.912C342.702 304.887 345.078 302.672 348.033 299.99C350.988 297.308 353.432 295.142 353.463 295.177ZM367.965 282.028C368.134 282.488 370.118 292.262 370.055 292.323C369.959 292.414 357.332 291.848 357.242 291.749C357.21 291.714 359.601 289.49 362.556 286.808C365.511 284.126 367.945 281.975 367.965 282.028ZM362.146 294.005C365.72 294.171 368.671 294.336 368.703 294.372C368.735 294.407 365.671 297.241 361.894 300.67C358.116 304.099 354.999 306.875 354.968 306.84C354.904 306.77 355.534 293.805 355.604 293.742C355.628 293.721 358.571 293.839 362.146 294.005ZM346.779 308.253C349.426 309.083 351.633 309.782 351.684 309.807C351.736 309.831 349.646 311.786 347.041 314.151C344.436 316.515 342.289 318.405 342.269 318.352C342.175 318.099 341.789 306.905 341.872 306.83C341.924 306.783 344.132 307.423 346.779 308.253ZM375.675 282.025C378.766 282.451 381.337 282.82 381.389 282.845C381.44 282.87 379.351 284.825 376.746 287.189C374.141 289.554 371.994 291.444 371.974 291.391C371.79 290.892 369.888 281.402 369.959 281.337C370.011 281.29 372.583 281.599 375.675 282.025ZM367.981 318.813C375.683 323.294 381.984 326.995 381.982 327.036C381.98 327.077 381.95 327.107 381.916 327.101C381.206 326.995 343.693 320.123 343.668 320.094C343.648 320.072 345.959 317.941 348.804 315.359L353.977 310.665L367.981 318.813ZM371.173 295.407C371.488 295.936 385.472 326.54 385.42 326.586C385.368 326.634 355.741 309.438 355.619 309.29C355.589 309.253 359.046 306.063 363.301 302.201L371.038 295.178L371.173 295.407ZM382.988 284.406C383.014 284.434 386.23 322.435 386.267 323.153C386.269 323.187 386.237 323.213 386.196 323.211C386.154 323.209 383.08 316.581 379.364 308.482L372.606 293.755L377.779 289.06C380.624 286.478 382.968 284.384 382.988 284.406Z" fill="#333333"/>
<path opacity="0.2" fill-rule="evenodd" clip-rule="evenodd" d="M367.086 8.1409C366.811 8.12754 362.861 8.3914 358.306 8.72732C351.086 9.25986 349.989 9.37446 349.74 9.62228C349.498 9.8623 348.865 13.8504 345.661 35.3246C342.854 54.1388 341.908 60.8285 342.02 61.0726C342.118 61.2845 342.288 61.4605 342.497 61.5652C342.737 61.6856 349.455 60.9628 368.352 58.7827C389.921 56.2943 393.927 55.7943 394.175 55.5606C394.431 55.3194 394.582 54.2269 395.355 47.0286C395.842 42.4881 396.237 38.5482 396.233 38.2731L396.225 37.7731L367.586 8.16528L367.086 8.1409ZM378.409 22.5296C378.306 22.6297 364.697 22.3556 364.601 22.2515C364.536 22.1812 367.35 11.8204 367.566 11.3346C367.591 11.2787 370.055 13.7603 373.043 16.8491C376.031 19.938 378.446 22.4942 378.409 22.5296ZM393.057 37.6876C392.568 37.8857 382.116 40.3555 382.048 40.2889C381.947 40.1895 382.124 26.579 382.227 26.479C382.265 26.4431 384.74 28.941 387.727 32.0298C390.715 35.1186 393.113 37.6647 393.057 37.6876ZM379.967 31.8343C379.911 35.687 379.834 38.8686 379.797 38.9045C379.76 38.9404 376.605 35.7392 372.785 31.7908C368.966 27.8423 365.871 24.5827 365.908 24.5473C365.981 24.4767 379.956 24.7116 380.027 24.7846C380.051 24.8093 380.024 27.9816 379.967 31.8343ZM364.107 15.782C363.305 18.6591 362.627 21.0589 362.603 21.1148C362.578 21.1708 360.402 18.9889 357.769 16.2661C355.135 13.5432 353.027 11.2964 353.084 11.2733C353.353 11.1632 365.387 10.3655 365.471 10.452C365.523 10.5064 364.91 12.9049 364.107 15.782ZM393.324 45.9856C392.971 49.3274 392.662 52.1076 392.637 52.1638C392.611 52.22 390.436 50.0383 387.802 47.3154C385.168 44.5926 383.06 42.346 383.117 42.323C383.647 42.1074 393.797 39.7359 393.869 39.8107C393.922 39.8651 393.676 42.6438 393.324 45.9856ZM353.466 38.9627C348.906 47.406 345.139 54.3135 345.095 54.3126C345.05 54.3118 345.017 54.2812 345.022 54.2447C345.112 53.4767 351.227 12.8669 351.256 12.8384C351.279 12.8159 353.652 15.2306 356.528 18.2044L361.758 23.6113L353.466 38.9627ZM378.768 41.5984C378.209 41.9549 345.748 58.0518 345.696 57.9983C345.643 57.9435 363.138 25.4681 363.293 25.3325C363.332 25.2988 366.884 28.9101 371.186 33.358L379.008 41.4448L378.768 41.5984ZM391.011 53.9384C390.982 53.9669 350.191 58.7274 349.421 58.7924C349.384 58.7956 349.355 58.7617 349.355 58.7173C349.356 58.673 356.385 55.1375 364.975 50.8605L380.594 43.0844L385.824 48.491C388.7 51.4645 391.035 53.9159 391.011 53.9384Z" fill="#EC565A"/>
<path opacity="0.2" fill-rule="evenodd" clip-rule="evenodd" d="M-2.09397 138.762C-2.45106 138.95 -7.24523 142.232 -12.7478 146.056C-21.4714 152.118 -22.7717 153.082 -22.9019 153.581C-23.0283 154.065 -20.8509 159.576 -8.8691 189.096C1.62847 214.96 5.42723 224.117 5.75139 224.341C6.03299 224.536 6.37956 224.631 6.72117 224.608C7.11453 224.581 15.0612 218.653 37.3067 201.793C62.6973 182.549 67.3861 178.927 67.5249 178.446C67.6682 177.951 67.0434 176.458 62.6459 166.788C59.872 160.688 57.4301 155.416 57.2195 155.071L56.8364 154.445L-1.44473 138.42L-2.09397 138.762ZM22.9509 148.487C22.8949 148.691 5.49823 158.503 5.29923 158.443C5.16461 158.403 0.985647 143.213 0.895867 142.438C0.885433 142.349 5.85181 143.644 11.9321 145.316C18.0123 146.988 22.9708 148.415 22.9509 148.487ZM52.7702 156.702C52.3004 157.318 40.9398 168.24 40.8046 168.206C40.603 168.156 30.6668 150.83 30.7228 150.626C30.7428 150.553 35.7341 151.861 41.8142 153.533C47.8945 155.205 52.8247 156.631 52.7702 156.702ZM31.8651 159.078C34.6695 163.988 36.9476 168.064 36.9276 168.137C36.9075 168.21 30.5318 166.522 22.7595 164.385C14.9872 162.247 8.64422 160.44 8.66406 160.368C8.70355 160.224 26.5343 150.089 26.678 150.128C26.7265 150.141 29.0607 154.169 31.8651 159.078ZM-0.153559 150.638C0.980114 154.872 1.91605 158.409 1.92626 158.499C1.93664 158.588 -2.44014 157.455 -7.79987 155.981C-13.1596 154.508 -17.5001 153.243 -17.4454 153.171C-17.1876 152.831 -2.57972 142.84 -2.40943 142.887C-2.30238 142.916 -1.28723 146.405 -0.153559 150.638ZM59.3014 166.986C61.3504 171.471 63.0351 175.214 63.0452 175.304C63.0555 175.394 58.6786 174.261 53.3189 172.788C47.9592 171.314 43.6186 170.049 43.6732 169.978C44.1824 169.31 55.2342 158.738 55.3814 158.778C55.4884 158.807 57.2524 162.501 59.3014 166.986ZM3.70731 187.866C4.24897 201.936 4.64592 213.474 4.58926 213.506C4.53255 213.539 4.46822 213.524 4.44644 213.475C3.9876 212.437 -18.6019 156.571 -18.5859 156.513C-18.5733 156.467 -13.7739 157.746 -7.92035 159.356L2.72235 162.283L3.70731 187.866ZM37.6379 172.309C37.1981 173.177 8.20555 217.743 8.1001 217.714C7.99234 217.684 5.85228 163.598 5.94744 163.311C5.97109 163.24 13.1537 165.151 21.9091 167.558L37.8275 171.935L37.6379 172.309ZM62.3169 178.759C62.301 178.817 14.3234 215.279 13.3984 215.937C13.3545 215.968 13.292 215.947 13.2596 215.891C13.2273 215.834 19.4679 206.121 27.1275 194.306L41.0541 172.823L51.6969 175.749C57.5504 177.359 62.3295 178.713 62.3169 178.759Z" fill="#333333"/>
</svg>
