<svg width="1712" height="1012" viewBox="0 0 1712 1012" fill="none" xmlns="http://www.w3.org/2000/svg">
<path opacity="0.2" fill-rule="evenodd" clip-rule="evenodd" d="M1626.06 207.246C1625.43 207.216 1616.34 207.822 1605.86 208.595C1589.26 209.82 1586.74 210.084 1586.16 210.654C1585.61 211.206 1584.15 220.378 1576.78 269.769C1570.32 313.042 1568.15 328.428 1568.41 328.99C1568.63 329.477 1569.02 329.882 1569.5 330.123C1570.06 330.4 1585.51 328.737 1628.97 323.723C1678.58 318 1687.79 316.85 1688.36 316.312C1688.95 315.757 1689.3 313.244 1691.08 296.688C1692.2 286.245 1693.1 277.183 1693.1 276.551L1693.08 275.401L1627.21 207.302L1626.06 207.246ZM1652.1 240.341C1651.86 240.571 1620.56 239.94 1620.34 239.701C1620.19 239.539 1626.66 215.709 1627.16 214.592C1627.22 214.463 1632.89 220.171 1639.76 227.275C1646.63 234.38 1652.19 240.259 1652.1 240.341ZM1685.79 275.204C1684.67 275.66 1660.63 281.34 1660.47 281.187C1660.24 280.958 1660.65 249.654 1660.88 249.424C1660.97 249.341 1666.66 255.087 1673.53 262.191C1680.4 269.295 1685.92 275.151 1685.79 275.204ZM1655.68 261.741C1655.55 270.603 1655.38 277.92 1655.29 278.003C1655.21 278.085 1647.95 270.723 1639.17 261.641C1630.38 252.56 1623.26 245.063 1623.35 244.981C1623.52 244.819 1655.66 245.359 1655.82 245.527C1655.88 245.584 1655.82 252.88 1655.68 261.741ZM1619.21 224.821C1617.36 231.438 1615.8 236.958 1615.75 237.086C1615.69 237.215 1610.69 232.197 1604.63 225.934C1598.57 219.672 1593.72 214.504 1593.85 214.451C1594.47 214.198 1622.15 212.363 1622.34 212.562C1622.46 212.687 1621.05 218.203 1619.21 224.821ZM1686.4 294.289C1685.59 301.976 1684.88 308.37 1684.82 308.499C1684.77 308.629 1679.76 303.611 1673.71 297.348C1667.65 291.085 1662.8 285.918 1662.93 285.865C1664.15 285.369 1687.49 279.915 1687.66 280.087C1687.78 280.212 1687.22 286.603 1686.4 294.289ZM1594.73 278.137C1584.24 297.556 1575.58 313.444 1575.48 313.442C1575.38 313.44 1575.3 313.369 1575.31 313.285C1575.52 311.519 1589.58 218.116 1589.65 218.051C1589.7 217.999 1595.16 223.553 1601.77 230.392L1613.8 242.828L1594.73 278.137ZM1652.93 284.199C1651.64 285.019 1576.98 322.042 1576.86 321.919C1576.74 321.793 1616.98 247.099 1617.33 246.787C1617.42 246.71 1625.59 255.016 1635.49 265.246L1653.48 283.846L1652.93 284.199ZM1681.09 312.581C1681.02 312.646 1587.2 323.596 1585.43 323.745C1585.34 323.752 1585.28 323.674 1585.28 323.572C1585.28 323.47 1601.44 315.339 1621.2 305.502L1657.13 287.617L1669.15 300.052C1675.77 306.891 1681.14 312.529 1681.09 312.581Z" fill="#EC565A"/>
<path opacity="0.2" fill-rule="evenodd" clip-rule="evenodd" d="M30.1783 853.393C29.7916 854.071 25.3851 864.4 20.3859 876.347C12.4605 895.287 11.3415 898.208 11.6477 899.157C11.944 900.077 21.2155 906.799 71.4002 942.478C115.369 973.738 131.069 984.72 131.831 984.75C132.492 984.775 133.156 984.57 133.689 984.177C134.302 983.725 141.101 965.811 159.856 915.228C181.263 857.494 185.144 846.72 184.872 845.792C184.591 844.835 182.022 843.05 164.812 831.854C153.957 824.791 144.502 818.732 143.801 818.39L142.526 817.767L30.8814 852.161L30.1783 853.393ZM81.1025 843.24C81.2227 843.63 63.0531 877.689 62.6666 877.799C62.4052 877.872 39.8208 857.452 38.8698 856.282C38.7602 856.147 48.2006 853.101 59.8481 849.513C71.4956 845.925 81.0599 843.102 81.1025 843.24ZM138.242 825.669C138.115 827.159 130.937 856.76 130.682 856.845C130.301 856.973 96.1126 839.047 95.9925 838.657C95.9494 838.517 105.444 835.466 117.091 831.878C128.739 828.29 138.257 825.496 138.242 825.669ZM106.631 851.249C116.301 856.34 124.247 860.619 124.29 860.759C124.334 860.899 112.187 864.767 97.2981 869.353C82.4092 873.94 70.1926 877.58 70.15 877.442C70.0653 877.167 88.6069 842.13 88.882 842.045C88.9751 842.017 96.9622 846.158 106.631 851.249ZM45.6738 870.738C51.9181 876.463 57.1166 881.257 57.226 881.392C57.3357 881.526 49.025 884.225 38.7577 887.388C28.4905 890.551 20.1018 892.996 20.1164 892.822C20.1837 892.001 33.6215 860.546 33.9477 860.445C34.1528 860.382 39.4295 865.014 45.6738 870.738ZM159.567 835.65C167.564 840.833 174.197 845.185 174.306 845.321C174.416 845.457 166.106 848.156 155.839 851.319C145.571 854.482 137.183 856.928 137.198 856.755C137.334 855.137 144.371 826.427 144.653 826.34C144.858 826.277 151.569 830.467 159.567 835.65ZM90.6235 927.413C106.117 949.787 118.745 968.184 118.686 968.295C118.627 968.406 118.507 968.45 118.421 968.392C116.595 967.176 21.7611 899.565 21.7269 899.454C21.6999 899.366 30.8522 896.468 42.0656 893.014L62.4535 886.734L90.6235 927.413ZM129.78 866.822C129.964 868.693 128.98 971.445 128.778 971.507C128.571 971.571 68.9214 885.628 68.7782 885.061C68.7425 884.92 82.4353 880.577 99.2073 875.41L129.701 866.016L129.78 866.822ZM176.707 851.709C176.741 851.82 136.394 961.077 135.569 963.109C135.53 963.206 135.407 963.237 135.295 963.178C135.184 963.12 135.271 940.806 135.488 913.592L135.883 864.113L156.27 857.831C167.483 854.377 176.68 851.622 176.707 851.709Z" fill="#EC565A"/>
<path opacity="0.2" fill-rule="evenodd" clip-rule="evenodd" d="M111.225 7.64146C110.652 7.94353 102.958 13.2111 94.128 19.3476C80.1287 29.076 78.042 30.6224 77.833 31.4238C77.6302 32.2001 81.1243 41.0435 100.352 88.4169C117.199 129.922 123.295 144.617 123.815 144.978C124.267 145.29 124.823 145.443 125.371 145.405C126.003 145.362 138.755 135.85 174.454 108.793C215.201 77.9111 222.725 72.0975 222.948 71.3267C223.178 70.5311 222.175 68.1352 215.118 52.6168C210.667 42.8282 206.748 34.3675 206.41 33.8149L205.795 32.8104L112.267 7.09251L111.225 7.64146ZM151.417 23.2485C151.327 23.5753 123.409 39.3216 123.09 39.2256C122.873 39.1607 116.167 14.7853 116.023 13.5417C116.006 13.3986 123.976 15.4768 133.734 18.1599C143.491 20.8429 151.448 23.1327 151.417 23.2485ZM199.27 36.4324C198.516 37.4197 180.285 54.9473 180.068 54.8931C179.744 54.8124 163.799 27.0078 163.889 26.681C163.921 26.5638 171.931 28.6631 181.688 31.346C191.445 34.0291 199.357 36.318 199.27 36.4324ZM165.722 40.2453C170.222 48.1238 173.878 54.6658 173.846 54.783C173.814 54.9002 163.582 52.1901 151.109 48.7604C138.637 45.3307 128.457 42.4299 128.489 42.3141C128.553 42.0836 157.167 25.8186 157.398 25.882C157.476 25.9034 161.221 32.3668 165.722 40.2453ZM114.339 26.7009C116.158 33.4952 117.66 39.1714 117.677 39.3148C117.693 39.4582 110.67 37.6405 102.068 35.2754C93.4672 32.9103 86.5017 30.8807 86.5895 30.7654C87.0033 30.2199 110.446 14.1866 110.719 14.2617C110.891 14.309 112.52 19.9066 114.339 26.7009ZM209.751 52.9355C213.039 60.1328 215.743 66.1395 215.759 66.2837C215.775 66.4277 208.752 64.6105 200.15 62.2454C191.549 59.8803 184.583 57.8513 184.671 57.7366C185.488 56.6641 203.224 39.6983 203.46 39.7632C203.632 39.8105 206.463 45.7379 209.751 52.9355ZM120.535 86.4424C121.404 109.022 122.041 127.539 121.95 127.59C121.859 127.642 121.756 127.619 121.721 127.54C120.985 125.874 84.7336 36.2207 84.7592 36.1278C84.7794 36.0544 92.4814 38.1078 101.875 40.6911L118.954 45.3881L120.535 86.4424ZM174.986 61.4777C174.28 62.8697 127.754 134.388 127.584 134.342C127.411 134.294 123.977 47.4989 124.13 47.0378C124.168 46.9231 135.694 49.9899 149.745 53.8534L175.29 60.8778L174.986 61.4777ZM214.59 71.828C214.565 71.9209 137.571 130.435 136.087 131.49C136.016 131.54 135.916 131.507 135.864 131.416C135.812 131.326 145.827 115.738 158.119 96.777L180.468 62.3028L197.547 66.9986C206.941 69.5813 214.61 71.7546 214.59 71.828Z" fill="#333333"/>
</svg>
