<svg width="1920" height="680" viewBox="0 0 1920 680" fill="none" xmlns="http://www.w3.org/2000/svg">
<path opacity="0.2" fill-rule="evenodd" clip-rule="evenodd" d="M55.4161 408.645C56.0701 408.759 65.6094 409.306 76.6149 409.859C94.0624 410.737 96.7234 410.79 97.3949 410.271C98.0456 409.768 100.751 400.407 114.827 349.941C127.159 305.726 131.419 289.99 131.223 289.372C131.052 288.835 130.696 288.363 130.228 288.05C129.689 287.69 113.388 287.417 67.4874 287.003C15.0973 286.529 5.35322 286.532 4.68982 287.017C4.00495 287.519 3.31753 290.09 -0.678327 307.096C-3.19886 317.824 -5.31977 327.14 -5.3917 327.8L-5.52224 329L54.2273 408.438L55.4161 408.645ZM32.5935 370.814C32.871 370.605 65.3765 375.32 65.5754 375.598C65.71 375.786 55.8822 399.756 55.2202 400.855C55.1441 400.981 49.9816 394.304 43.7482 386.016C37.5147 377.729 32.4951 370.888 32.5935 370.814ZM2.03892 330.149C3.26867 329.82 29.0335 327.023 29.1755 327.203C29.3873 327.471 24.9053 360.01 24.6277 360.218C24.5282 360.293 19.3464 353.574 13.1132 345.287C6.87973 336.999 1.89621 330.187 2.03892 330.149ZM31.6366 348.069C32.921 338.86 34.0532 331.264 34.1528 331.189C34.2523 331.114 40.8533 339.721 48.8214 350.315C56.7896 360.908 63.2286 369.637 63.1303 369.711C62.9345 369.858 29.5391 365.128 29.3919 364.932C29.3421 364.866 30.3522 357.277 31.6366 348.069ZM64.828 391.237C67.6079 384.587 69.945 379.042 70.0215 378.916C70.0978 378.789 74.656 384.662 80.1508 391.968C85.6455 399.273 90.0238 405.282 89.8804 405.32C89.2032 405.504 60.1478 403.825 59.9732 403.593C59.8635 403.447 62.0481 397.887 64.828 391.237ZM3.87436 310.199C5.71531 302.302 7.28467 295.737 7.36189 295.61C7.43867 295.483 11.9974 301.356 17.4921 308.662C22.9869 315.967 27.3657 321.975 27.2227 322.014C25.8882 322.372 0.877253 325.024 0.726405 324.823C0.616661 324.677 2.03317 318.096 3.87436 310.199ZM97.2207 338.902C110.658 320.044 121.739 304.627 121.845 304.642C121.951 304.657 122.02 304.74 121.999 304.826C121.553 306.638 94.8025 402.058 94.7235 402.118C94.6612 402.164 89.7005 395.675 83.6996 387.696L72.7892 373.19L97.2207 338.902ZM37.4213 325.046C38.8656 324.358 121.396 295.493 121.504 295.637C121.614 295.784 70.0374 368.331 69.6248 368.61C69.5221 368.679 62.0942 358.972 53.1183 347.039L36.7988 325.341L37.4213 325.046ZM11.7824 291.845C11.8613 291.786 110.957 292.55 112.822 292.625C112.91 292.628 112.971 292.718 112.956 292.824C112.941 292.93 95.0558 299.3 73.2105 306.98L33.4917 320.943L22.5803 306.437C16.5791 298.458 11.72 291.892 11.7824 291.845Z" fill="#333333"/>
<path opacity="0.2" fill-rule="evenodd" clip-rule="evenodd" d="M1681.38 71.033C1681.34 71.5745 1681.61 79.3894 1681.99 88.3998C1682.59 102.684 1682.75 104.857 1683.22 105.365C1683.68 105.857 1691.51 107.357 1733.7 115.027C1770.66 121.748 1783.8 124.034 1784.29 123.828C1784.72 123.648 1785.07 123.323 1785.29 122.918C1785.55 122.451 1784.54 109.147 1781.42 71.71C1777.86 28.9801 1777.13 21.0396 1776.68 20.5356C1776.22 20.0152 1774.07 19.6487 1759.91 17.673C1750.98 16.4267 1743.23 15.3999 1742.69 15.391L1741.7 15.375L1681.46 70.0485L1681.38 71.033ZM1710.49 49.5853C1710.69 49.7957 1709.29 76.6404 1709.08 76.8234C1708.94 76.9472 1688.66 70.7433 1687.72 70.2866C1687.61 70.2341 1692.66 65.5243 1698.95 59.8204C1705.23 54.1165 1710.43 49.5107 1710.49 49.5853ZM1741.33 21.6233C1741.69 22.6007 1745.91 43.3865 1745.78 43.5158C1745.57 43.7086 1718.72 42.5063 1718.53 42.2959C1718.46 42.2204 1723.55 37.4917 1729.83 31.7879C1736.12 26.084 1741.29 21.5099 1741.33 21.6233ZM1728.96 47.0927C1736.56 47.4459 1742.83 47.7966 1742.9 47.8721C1742.97 47.9476 1736.46 53.975 1728.42 61.2662C1720.39 68.5574 1713.76 74.462 1713.69 74.3875C1713.56 74.239 1714.9 46.668 1715.05 46.5333C1715.1 46.4877 1721.36 46.7394 1728.96 47.0927ZM1696.28 77.392C1701.91 79.1567 1706.6 80.6436 1706.71 80.6965C1706.82 80.7491 1702.38 84.906 1696.84 89.934C1691.3 94.9619 1686.73 98.9824 1686.69 98.8684C1686.49 98.3304 1685.67 74.5259 1685.84 74.3662C1685.95 74.2658 1690.65 75.6274 1696.28 77.392ZM1757.73 21.6168C1764.3 22.5223 1769.77 23.3069 1769.88 23.3602C1769.99 23.4132 1765.55 27.5705 1760.01 32.5985C1754.47 37.6264 1749.9 41.6473 1749.86 41.5337C1749.47 40.473 1745.42 20.2907 1745.57 20.1526C1745.68 20.0522 1751.15 20.711 1757.73 21.6168ZM1741.37 99.8487C1757.75 109.379 1771.15 117.248 1771.14 117.336C1771.14 117.423 1771.07 117.486 1771 117.475C1769.49 117.248 1689.72 102.634 1689.66 102.574C1689.62 102.527 1694.54 97.9955 1700.59 92.5044L1711.59 82.5207L1741.37 99.8487ZM1748.16 50.0731C1748.82 51.1983 1778.56 116.281 1778.45 116.38C1778.34 116.481 1715.34 79.9124 1715.08 79.5971C1715.02 79.5187 1722.37 72.7345 1731.42 64.5211L1747.87 49.5881L1748.16 50.0731ZM1773.28 26.6791C1773.34 26.7389 1780.17 107.552 1780.25 109.077C1780.26 109.15 1780.19 109.206 1780.1 109.202C1780.01 109.198 1773.48 95.1022 1765.57 77.8782L1751.2 46.5618L1762.2 36.5774C1768.25 31.0861 1773.24 26.6318 1773.28 26.6791Z" fill="#333333"/>
<path opacity="0.2" fill-rule="evenodd" clip-rule="evenodd" d="M1762.9 456.443C1762.8 457.717 1763.44 476.106 1764.33 497.307C1765.74 530.919 1766.11 536.031 1767.22 537.227C1768.3 538.386 1786.73 541.914 1886 559.963C1972.97 575.777 2003.9 581.156 2005.05 580.67C2006.05 580.248 2006.89 579.483 2007.41 578.53C2008 577.432 2005.63 546.126 1998.3 458.036C1989.92 357.492 1988.19 338.808 1987.14 337.622C1986.06 336.397 1981.01 335.535 1947.69 330.886C1926.67 327.953 1908.43 325.537 1907.15 325.516L1904.83 325.479L1763.09 454.127L1762.9 456.443ZM1831.4 405.976C1831.85 406.471 1828.57 469.637 1828.07 470.068C1827.74 470.359 1780.03 455.761 1777.81 454.687C1777.55 454.563 1789.44 443.481 1804.23 430.059C1819.01 416.638 1831.24 405.801 1831.4 405.976ZM1903.96 340.181C1904.81 342.481 1914.74 391.39 1914.42 391.694C1913.94 392.148 1850.76 389.319 1850.31 388.824C1850.15 388.646 1862.11 377.52 1876.9 364.099C1891.69 350.677 1903.87 339.914 1903.96 340.181ZM1874.85 400.111C1892.73 400.942 1907.5 401.767 1907.66 401.945C1907.82 402.123 1892.49 416.305 1873.59 433.462C1854.68 450.618 1839.09 464.512 1838.93 464.336C1838.61 463.987 1841.76 399.112 1842.11 398.795C1842.23 398.687 1856.96 399.28 1874.85 400.111ZM1797.95 471.406C1811.2 475.558 1822.24 479.057 1822.5 479.181C1822.75 479.305 1812.3 489.086 1799.27 500.917C1786.23 512.748 1775.48 522.209 1775.38 521.94C1774.91 520.674 1772.98 464.662 1773.4 464.286C1773.66 464.05 1784.71 467.254 1797.95 471.406ZM1942.54 340.166C1958.01 342.297 1970.88 344.143 1971.14 344.268C1971.39 344.393 1960.94 354.175 1947.91 366.006C1934.87 377.837 1924.12 387.298 1924.03 387.031C1923.1 384.535 1913.59 337.045 1913.94 336.721C1914.2 336.484 1927.07 338.034 1942.54 340.166ZM1904.05 524.247C1942.59 546.672 1974.11 565.188 1974.1 565.394C1974.09 565.6 1973.95 565.748 1973.78 565.723C1970.22 565.189 1782.51 530.801 1782.38 530.66C1782.28 530.548 1793.85 519.886 1808.08 506.966L1833.97 483.474L1904.05 524.247ZM1920.02 407.124C1921.59 409.772 1991.57 562.912 1991.31 563.145C1991.05 563.383 1842.8 477.337 1842.19 476.595C1842.04 476.41 1859.34 460.447 1880.63 441.121L1919.34 405.983L1920.02 407.124ZM1979.14 352.077C1979.27 352.218 1995.36 542.374 1995.55 545.962C1995.56 546.133 1995.4 546.265 1995.19 546.255C1994.98 546.246 1979.6 513.078 1961 472.55L1927.19 398.862L1953.07 375.368C1967.31 362.447 1979.04 351.966 1979.14 352.077Z" fill="#EC565A"/>
</svg>
