<svg width="375" height="435" viewBox="0 0 375 435" fill="none" xmlns="http://www.w3.org/2000/svg">
<path opacity="0.2" fill-rule="evenodd" clip-rule="evenodd" d="M343.414 348.659C343.103 348.769 338.85 350.85 333.962 353.285C326.212 357.145 325.05 357.769 324.886 358.156C324.727 358.531 325.833 363.232 332.014 388.451C337.429 410.546 339.412 418.378 339.647 418.598C339.851 418.788 340.12 418.906 340.398 418.927C340.718 418.952 347.826 415.109 367.754 404.136C390.499 391.612 394.707 389.243 394.876 388.872C395.05 388.489 394.722 387.212 392.316 378.895C390.799 373.649 389.451 369.109 389.322 368.807L389.087 368.257L343.977 348.46L343.414 348.659ZM362.463 359.455C362.394 359.613 347.208 365.474 347.054 365.402C346.951 365.354 345.372 352.612 345.391 351.977C345.393 351.903 349.245 353.533 353.951 355.599C358.658 357.664 362.488 359.4 362.463 359.455ZM385.542 369.597C385.09 370.038 374.641 377.506 374.536 377.463C374.379 377.399 368.409 362.255 368.479 362.097C368.503 362.04 372.374 363.684 377.08 365.749C381.786 367.815 385.594 369.546 385.542 369.597ZM368.403 369.048C370.085 373.338 371.442 376.894 371.417 376.95C371.392 377.007 366.45 374.893 360.434 372.253C354.418 369.613 349.516 367.407 349.541 367.351C349.59 367.24 365.164 361.17 365.275 361.218C365.313 361.235 366.72 364.758 368.403 369.048ZM343.578 358.465C343.993 362.013 344.33 364.976 344.328 365.049C344.326 365.123 340.93 363.693 336.781 361.872C332.633 360.052 329.282 358.52 329.334 358.469C329.582 358.225 342.541 351.891 342.673 351.949C342.755 351.985 343.163 354.917 343.578 358.465ZM389.596 378.661C390.719 382.519 391.636 385.736 391.634 385.81C391.632 385.883 388.235 384.454 384.087 382.633C379.939 380.813 376.587 379.281 376.64 379.23C377.129 378.751 387.289 371.529 387.402 371.579C387.485 371.615 388.472 374.802 389.596 378.661ZM342.301 388.942C341.078 400.352 340.037 409.704 339.988 409.723C339.938 409.742 339.888 409.723 339.877 409.681C339.629 408.79 328.001 361.074 328.021 361.029C328.036 360.993 331.756 362.591 336.286 364.58L344.524 368.195L342.301 388.942ZM371.498 380.398C371.041 381.046 342.405 413.566 342.323 413.53C342.24 413.494 346.892 369.625 347.003 369.405C347.031 369.35 352.597 371.738 359.374 374.712L371.695 380.119L371.498 380.398ZM390.639 388.51C390.619 388.555 347.629 412.301 346.805 412.722C346.766 412.742 346.718 412.718 346.699 412.668C346.679 412.619 352.858 405.522 360.428 396.897L374.192 381.216L382.43 384.831C386.96 386.819 390.655 388.475 390.639 388.51Z" fill="#333333"/>
<path opacity="0.2" fill-rule="evenodd" clip-rule="evenodd" d="M-6.32108 36.1758C-6.27403 36.3885 -5.24921 39.3524 -4.0436 42.7623C-2.1323 48.1682 -1.81616 48.9825 -1.57481 49.1215C-1.34101 49.2563 1.83822 48.909 18.9144 46.8828C33.8754 45.1076 39.1841 44.4364 39.3472 44.2997C39.4888 44.1809 39.5879 44.0141 39.6244 43.8329C39.6664 43.6243 37.7144 38.642 32.111 24.6569C25.7155 8.6944 24.4986 5.73684 24.2683 5.59609C24.0307 5.45075 23.1644 5.56301 17.5032 6.47276C13.9323 7.0466 10.8394 7.56566 10.6301 7.62619L10.2497 7.73631L-6.40653 35.789L-6.32108 36.1758ZM2.3142 24.5257C2.41221 24.5839 5.03837 35.0396 4.97884 35.1347C4.93859 35.199 -3.56445 35.2077 -3.98064 35.1438C-4.02856 35.1366 -2.64598 32.736 -0.908298 29.8094C0.82938 26.8827 2.27946 24.5051 2.3142 24.5257ZM10.8445 10.175C11.0978 10.5073 15.1628 17.9792 15.1259 18.0448C15.071 18.1425 4.63432 20.8434 4.5363 20.7852C4.50114 20.7643 5.8941 18.3526 7.63173 15.4261C9.3694 12.4995 10.8152 10.1364 10.8445 10.175ZM9.09925 21.3962C12.0549 20.6367 14.502 20.0323 14.5371 20.0532C14.5723 20.0741 12.7837 23.1521 10.5625 26.8932C8.3412 30.6342 6.49543 33.6783 6.4607 33.6576C6.39157 33.6166 3.65908 22.8888 3.70012 22.8197C3.714 22.7963 6.14357 22.1558 9.09925 21.3962ZM0.138226 36.8599C2.50389 36.8737 4.47867 36.891 4.52662 36.8985C4.57463 36.9058 3.36064 39.0226 1.82888 41.6024C0.297124 44.1822 -0.980399 46.2613 -1.00999 46.2226C-1.15016 46.0399 -4.26726 37.0104 -4.2186 36.9284C-4.188 36.8769 -2.22744 36.8461 0.138226 36.8599ZM17.1295 8.24208C19.7564 7.81523 21.9452 7.47216 21.9934 7.47974C22.0416 7.48718 20.8278 9.60408 19.296 12.1839C17.7643 14.7637 16.4869 16.8429 16.4575 16.8043C16.1822 16.4438 12.2554 9.18262 12.2975 9.1118C12.328 9.06027 14.5024 8.66888 17.1295 8.24208ZM20.068 40.1605C27.4697 41.8857 33.5328 43.325 33.5413 43.3591C33.5499 43.3932 33.5334 43.4247 33.5046 43.429C32.8989 43.5198 0.594634 47.3095 0.566763 47.293C0.544737 47.2799 1.89547 44.964 3.56847 42.1465L6.61025 37.0239L20.068 40.1605ZM16.8101 20.2785C17.1989 20.6312 36.2624 42.0809 36.2323 42.1316C36.2015 42.1835 7.74146 35.5822 7.60546 35.4917C7.57162 35.4692 9.59104 32.0028 12.0932 27.7886L16.6426 20.1265L16.8101 20.2785ZM23.688 8.35169C23.7159 8.36824 35.8528 38.5448 36.063 39.1201C36.073 39.1474 36.0533 39.177 36.0192 39.1857C35.9852 39.1945 31.8191 34.5603 26.7612 28.8876L17.5651 18.5736L20.6065 13.4507C22.2793 10.6332 23.666 8.33862 23.688 8.35169Z" fill="#EC565A"/>
</svg>
