<svg width="1834" height="755" viewBox="0 0 1834 755" fill="none" xmlns="http://www.w3.org/2000/svg">
<path opacity="0.2" fill-rule="evenodd" clip-rule="evenodd" d="M14.2556 110.22C14.3989 110.868 17.5214 119.898 21.1946 130.287C27.0179 146.758 27.9811 149.239 28.7164 149.663C29.4288 150.073 39.1151 149.015 91.1425 142.842C136.725 137.433 152.9 135.388 153.397 134.971C153.828 134.61 154.13 134.101 154.241 133.549C154.369 132.914 148.422 117.734 131.349 75.1242C111.864 26.4902 108.156 17.4792 107.454 17.0504C106.731 16.6075 104.091 16.9496 86.8427 19.7214C75.9629 21.4697 66.5398 23.0512 65.9021 23.2356L64.7429 23.5711L13.9952 109.041L14.2556 110.22ZM40.5653 74.7247C40.864 74.902 48.8653 106.758 48.6839 107.048C48.5613 107.244 22.6544 107.27 21.3864 107.076C21.2404 107.053 25.4528 99.7395 30.7471 90.8227C36.0414 81.9059 40.4595 74.6619 40.5653 74.7247ZM66.5553 31.0013C67.3268 32.0137 79.712 54.779 79.5998 54.9786C79.4323 55.2765 47.6342 63.5053 47.3356 63.328C47.2285 63.2644 51.4725 55.9167 56.7666 47.0002C62.0609 38.0834 66.4659 30.8837 66.5553 31.0013ZM61.2378 65.1899C70.2431 62.8758 77.6988 61.0343 77.8059 61.0979C77.913 61.1615 72.4636 70.5394 65.6959 81.9377C58.9282 93.3359 53.3046 102.61 53.1988 102.548C52.9882 102.422 44.6629 69.7374 44.7879 69.5268C44.8302 69.4555 52.2326 67.504 61.2378 65.1899ZM33.9356 112.304C41.1433 112.346 47.16 112.399 47.3061 112.422C47.4523 112.444 43.7536 118.893 39.0867 126.753C34.4198 134.614 30.5274 140.948 30.4373 140.83C30.0102 140.273 20.5131 112.763 20.6614 112.513C20.7546 112.356 26.728 112.262 33.9356 112.304ZM85.7041 25.1121C93.7079 23.8116 100.377 22.7663 100.523 22.7894C100.67 22.8121 96.972 29.2618 92.3051 37.1219C87.6382 44.982 83.7464 51.3168 83.6567 51.1991C82.8181 50.101 70.8539 27.9777 70.982 27.7619C71.0753 27.6049 77.7001 26.4125 85.7041 25.1121ZM94.6571 122.36C117.208 127.617 135.681 132.002 135.707 132.106C135.733 132.209 135.683 132.305 135.595 132.318C133.75 132.595 35.3262 144.142 35.2413 144.091C35.1742 144.051 39.2896 136.996 44.3868 128.411L53.6544 112.804L94.6571 122.36ZM84.731 61.7844C85.9157 62.8589 143.998 128.211 143.906 128.366C143.812 128.524 57.101 108.411 56.6866 108.135C56.5835 108.067 62.7362 97.5057 70.3598 84.6659L84.2206 61.3212L84.731 61.7844ZM105.687 25.4461C105.771 25.4965 142.75 117.438 143.39 119.19C143.421 119.274 143.361 119.364 143.257 119.39C143.153 119.417 130.46 105.298 115.05 88.0144L87.0313 56.5898L96.2979 40.9817C101.394 32.3974 105.619 25.4062 105.687 25.4461Z" fill="#EC565A"/>
<path opacity="0.2" fill-rule="evenodd" clip-rule="evenodd" d="M1700.1 551.42C1699.36 551.68 1689.27 556.616 1677.68 562.39C1659.3 571.544 1656.55 573.023 1656.16 573.941C1655.78 574.831 1658.4 585.979 1673.06 645.784C1685.9 698.181 1690.61 716.756 1691.16 717.276C1691.65 717.727 1692.28 718.006 1692.94 718.057C1693.7 718.115 1710.56 709.002 1757.82 682.98C1811.76 653.28 1821.74 647.663 1822.14 646.783C1822.55 645.875 1821.77 642.846 1816.07 623.123C1812.47 610.682 1809.27 599.916 1808.96 599.199L1808.41 597.895L1701.43 550.947L1700.1 551.42ZM1745.27 577.023C1745.11 577.397 1709.09 591.296 1708.73 591.126C1708.48 591.011 1704.74 560.794 1704.79 559.287C1704.79 559.114 1713.93 562.979 1725.09 567.877C1736.25 572.775 1745.33 576.891 1745.27 577.023ZM1800 601.074C1798.93 602.119 1774.15 619.829 1773.9 619.727C1773.53 619.574 1759.37 583.661 1759.54 583.287C1759.59 583.153 1768.77 587.051 1779.93 591.948C1791.09 596.846 1800.12 600.953 1800 601.074ZM1759.36 599.771C1763.35 609.944 1766.56 618.377 1766.5 618.511C1766.45 618.645 1754.73 613.633 1740.46 607.372C1726.19 601.111 1714.57 595.88 1714.63 595.748C1714.74 595.484 1751.68 581.088 1751.94 581.204C1752.03 581.243 1755.37 589.598 1759.36 599.771ZM1700.49 574.675C1701.47 583.089 1702.27 590.115 1702.26 590.289C1702.26 590.463 1694.21 587.072 1684.37 582.755C1674.53 578.438 1666.58 574.805 1666.71 574.683C1667.3 574.105 1698.03 559.084 1698.34 559.221C1698.54 559.307 1699.5 566.262 1700.49 574.675ZM1809.61 622.567C1812.28 631.717 1814.45 639.346 1814.45 639.521C1814.44 639.695 1806.39 636.306 1796.55 631.988C1786.71 627.671 1778.77 624.039 1778.89 623.918C1780.05 622.782 1804.14 605.655 1804.41 605.773C1804.61 605.86 1806.95 613.417 1809.61 622.567ZM1697.46 646.948C1694.56 674.008 1692.09 696.185 1691.97 696.23C1691.86 696.276 1691.74 696.231 1691.71 696.13C1691.12 694.017 1663.55 580.86 1663.59 580.754C1663.63 580.67 1672.45 584.46 1683.19 589.175L1702.73 597.749L1697.46 646.948ZM1766.7 626.688C1765.61 628.224 1697.7 705.343 1697.51 705.258C1697.31 705.171 1708.35 601.14 1708.61 600.617C1708.67 600.487 1721.87 606.15 1737.95 613.203L1767.16 626.026L1766.7 626.688ZM1812.09 645.924C1812.04 646.031 1710.09 702.343 1708.14 703.341C1708.05 703.389 1707.93 703.332 1707.89 703.214C1707.84 703.097 1722.49 686.267 1740.44 665.814L1773.09 628.627L1792.62 637.199C1803.36 641.914 1812.13 645.84 1812.09 645.924Z" fill="#333333"/>
</svg>
