<svg width="26" height="26" viewBox="0 0 26 26" fill="none" xmlns="http://www.w3.org/2000/svg">
<path d="M12.9997 0C5.97428 0 0.272461 5.70182 0.272461 12.7273C0.272461 19.7527 5.97428 25.4545 12.9997 25.4545C20.0252 25.4545 25.727 19.7527 25.727 12.7273C25.727 5.70182 20.0252 0 12.9997 0ZM18.9052 8.65455C18.7143 10.6655 17.887 15.5527 17.467 17.8055C17.2888 18.76 16.9325 19.0782 16.6016 19.1164C15.8634 19.18 15.3034 18.6327 14.5906 18.1618C13.4706 17.4236 12.8343 16.9655 11.7525 16.2527C10.4925 15.4255 11.307 14.9673 12.0325 14.2291C12.2234 14.0382 15.4816 11.0727 15.5452 10.8055C15.554 10.765 15.5529 10.7229 15.5418 10.683C15.5307 10.6431 15.51 10.6065 15.4816 10.5764C15.4052 10.5127 15.3034 10.5382 15.2143 10.5509C15.0997 10.5764 13.3179 11.76 9.84337 14.1018C9.33428 14.4455 8.8761 14.6236 8.46882 14.6109C8.01064 14.5982 7.14519 14.3564 6.4961 14.14C5.69428 13.8855 5.07064 13.7455 5.12155 13.3C5.14701 13.0709 5.46519 12.8418 6.06337 12.6C9.77973 10.9836 12.2488 9.91455 13.4834 9.40545C17.0216 7.92909 17.747 7.67454 18.2306 7.67454C18.3325 7.67454 18.5743 7.7 18.727 7.82727C18.8543 7.92909 18.8925 8.06909 18.9052 8.17091C18.8925 8.24727 18.9179 8.47636 18.9052 8.65455Z" fill="black"/>
</svg>
