<svg width="26" height="19" viewBox="0 0 26 19" fill="none" xmlns="http://www.w3.org/2000/svg">
<path d="M10.7267 13.5456L17.3322 9.72745L10.7267 5.90927V13.5456ZM25.4395 3.58018C25.6049 4.17836 25.7195 4.98018 25.7958 5.99836C25.8849 7.01654 25.9231 7.89472 25.9231 8.65836L25.9995 9.72745C25.9995 12.5147 25.7958 14.5638 25.4395 15.8747C25.1213 17.0202 24.3831 17.7584 23.2376 18.0765C22.6395 18.242 21.5449 18.3565 19.8649 18.4329C18.2104 18.522 16.6958 18.5602 15.2958 18.5602L13.2722 18.6365C7.93947 18.6365 4.61765 18.4329 3.30674 18.0765C2.16129 17.7584 1.4231 17.0202 1.10492 15.8747C0.939467 15.2765 0.824922 14.4747 0.748558 13.4565C0.659467 12.4384 0.621285 11.5602 0.621285 10.7965L0.544922 9.72745C0.544922 6.94018 0.748558 4.89109 1.10492 3.58018C1.4231 2.43472 2.16129 1.69654 3.30674 1.37836C3.90492 1.2129 4.99947 1.09836 6.67947 1.022C8.33401 0.932905 9.84856 0.894723 11.2486 0.894723L13.2722 0.818359C18.6049 0.818359 21.9267 1.022 23.2376 1.37836C24.3831 1.69654 25.1213 2.43472 25.4395 3.58018Z" fill="black"/>
</svg>
